<svg xmlns="http://www.w3.org/2000/svg" data-name="Pixel perfect" viewBox="0 0 51.5 61.875" x="0px" y="0px" stroke="none" stroke-width="1" fill="white"><path d="M486,371h6v6h-6v-6Zm0-14h6v-6h-6v6Zm0,10h6v-6h-6v6Zm10,10h6v-6h-6v6Zm-10-30h6v-6h-6v6Zm0-10h6v-6h-6v6Zm10,30h6v-6h-6v6Zm13.5-26H506v6h4.8A16.1,16.1,0,0,1,509.5,341Zm2.5-9.5V331h-6v6h4.1A17.5,17.5,0,0,1,512,331.5Zm4,21.6V357h6v-1.6A17.4,17.4,0,0,1,516,353.2Zm0,13.8h6v-6h-6v6Zm10,10h6v-6h-6v6Zm0-21.6V357h6v-3.8C531,354.3,529,355.1,526,355.4ZM516,377h6v-6h-6v6Zm10-10h6v-6h-6v6Zm-20,0h6v-6h-6v6Zm-10-30h6v-6h-6v6Zm0,10h6v-6h-6v6Zm10,30h6v-6h-6v6Zm0-20h6v-6h-6v6Zm-10,0h6v-6h-6v6Zm28.5-29.5a13,13,0,1,0,13,13A13,13,0,0,0,524.5,327.5Zm-0.8,19.6-5.9-5.9,1.4-1.4,4.1,4.1,5.3-8.9,1.7,1Z" transform="translate(-486 -327.5)"/></svg>
