<svg xmlns="http://www.w3.org/2000/svg" xmlns:xlink="http://www.w3.org/1999/xlink" version="1.1" x="0px" y="0px" viewBox="0 0 45 72.5" enable-background="new 0 0 45 58" xml:space="preserve"><g stroke="none" stroke-width="1" fill="white"><path d="M44.45,12.19l-0.77-0.77l-10.1-10.1l-0.77-0.77C32.46,0.2,31.98,0,31.49,0H2.46C1.28,0,0,0.92,0,2.93V39v16.54V56   c0,0.84,0.84,1.65,1.84,1.91c0.05,0.01,0.1,0.03,0.15,0.04C2.14,57.98,2.3,58,2.46,58h40.07c0.16,0,0.32-0.02,0.48-0.05   c0.05-0.01,0.1-0.03,0.15-0.04c1-0.26,1.84-1.07,1.84-1.91v-0.46V39V13.98C45,13.21,44.91,12.64,44.45,12.19z M42,25   c-0.21,0-0.4,0.08-0.56,0.19l-0.65-0.62C40.92,24.41,41,24.22,41,24c0-0.55-0.45-1-1-1c-0.24,0-0.45,0.09-0.62,0.23l-0.63-0.6   C38.9,22.46,39,22.25,39,22c0-0.55-0.45-1-1-1c-0.26,0-0.5,0.11-0.68,0.27l-0.61-0.58C36.89,20.52,37,20.27,37,20   c0-0.55-0.45-1-1-1c-0.29,0-0.55,0.13-0.73,0.33l-0.58-0.55c-0.01-0.01-0.03-0.02-0.04-0.03C34.86,18.56,35,18.3,35,18   c0-0.55-0.45-1-1-1s-1,0.45-1,1c0,0.31,0.14,0.57,0.36,0.75c-0.03,0.03-0.07,0.04-0.1,0.07l-0.5,0.55C32.58,19.15,32.31,19,32,19   c-0.55,0-1,0.45-1,1c0,0.34,0.18,0.63,0.45,0.81l-0.61,0.67C30.66,21.2,30.36,21,30,21c-0.55,0-1,0.45-1,1   c0,0.39,0.23,0.72,0.56,0.88l-0.65,0.71C28.75,23.24,28.41,23,28,23c-0.55,0-1,0.45-1,1c0,0.44,0.29,0.8,0.68,0.94l-0.74,0.81   C26.83,25.32,26.46,25,26,25c-0.55,0-1,0.45-1,1c0,0.49,0.36,0.88,0.83,0.97l-0.85,0.93C24.93,27.4,24.52,27,24,27   c-0.55,0-1,0.45-1,1c0,0.54,0.44,0.98,0.98,1l-0.51,0.56l-4.74-4.74c-0.37-0.37-0.96-0.39-1.35-0.05l-6.41,5.46   C10.97,30.14,11,30.08,11,30c0-0.55-0.45-1-1-1s-1,0.45-1,1c0,0.55,0.45,1,1,1c0.01,0,0.03-0.01,0.04-0.01l-1.06,0.9   C8.92,31.4,8.52,31,8,31c-0.55,0-1,0.45-1,1c0,0.46,0.32,0.83,0.74,0.95l-0.82,0.69C6.78,33.27,6.43,33,6,33c-0.55,0-1,0.45-1,1   c0,0.37,0.21,0.68,0.51,0.85l-0.7,0.59C4.63,35.18,4.34,35,4,35c-0.55,0-1,0.45-1,1c0,0.28,0.12,0.54,0.31,0.72L2,37.84V35   c0.55,0,1-0.45,1-1c0-0.55-0.45-1-1-1v-2c0.55,0,1-0.45,1-1c0-0.55-0.45-1-1-1v-2c0.55,0,1-0.45,1-1c0-0.55-0.45-1-1-1v-2   c0.55,0,1-0.45,1-1c0-0.55-0.45-1-1-1v-2c0.55,0,1-0.45,1-1c0-0.55-0.45-1-1-1v-2c0.55,0,1-0.45,1-1c0-0.55-0.45-1-1-1v-2   c0.55,0,1-0.45,1-1c0-0.55-0.45-1-1-1V7c0.55,0,1-0.45,1-1c0-0.55-0.45-1-1-1V3c0.55,0,1-0.45,1-1c0,0,0,0,0,0l2,0c0,0,0,0,0,0   c0,0.55,0.45,1,1,1s1-0.45,1-1c0,0,0,0,0-0.01l2,0C9,1.99,9,2,9,2c0,0.55,0.45,1,1,1s1-0.45,1-1c0,0,0-0.01,0-0.01l2,0   c0,0,0,0.01,0,0.01c0,0.55,0.45,1,1,1s1-0.45,1-1c0-0.01,0-0.01,0-0.02l2.01,0c0,0.01,0,0.01,0,0.02c0,0.55,0.45,1,1,1s1-0.45,1-1   c0-0.01,0-0.01,0-0.02l2.01,0c0,0.01,0,0.01,0,0.02c0,0.55,0.45,1,1,1s1-0.45,1-1c0-0.01,0-0.02-0.01-0.03l2.01,0   C25.01,1.98,25,1.99,25,2c0,0.55,0.45,1,1,1s1-0.45,1-1c0-0.01-0.01-0.02-0.01-0.03l2.01,0C29.01,1.98,29,1.99,29,2   c0,0.55,0.45,1,1,1s1-0.45,1-1c0-0.01-0.01-0.02-0.01-0.04l0.08,0C31.03,2.1,31,2.24,31,2.39V6v4v4h2c0,0.55,0.45,1,1,1s1-0.45,1-1   h2c0,0.55,0.45,1,1,1s1-0.45,1-1h2c0,0.55,0.45,1,1,1s1-0.45,1-1c0-0.02-0.01-0.04-0.01-0.06c0,0,0.01,0,0.01,0   c0,0.01,0,0.02,0,0.04V14v4v4v4v0.67l-0.16-0.16C42.93,26.36,43,26.19,43,26C43,25.45,42.55,25,42,25z M41.44,12H33V3.56L41.44,12z    M2.46,56c-0.07,0-0.13-0.03-0.2-0.05C2.11,55.88,2,55.72,2,55.54V41h41v14.54c0,0.18-0.11,0.34-0.26,0.41   c-0.06,0.02-0.13,0.05-0.2,0.05H2.46z M3.72,39l14.13-12.03C17.9,26.98,17.95,27,18,27c0.03,0,0.05-0.01,0.07-0.01l10.2,10.2   c0.39,0.39,1.02,0.39,1.41,0s0.39-1.02,0-1.41l-4.81-4.81l9.17-10.04l8.95,8.5V39H3.72z"/><path d="M15.54,44.74c-0.33-0.27-0.71-0.48-1.13-0.62c-0.42-0.14-0.84-0.21-1.27-0.21h-2.9V54h1.64v-3.64h1.22   c0.53,0,1.01-0.08,1.45-0.23s0.81-0.37,1.12-0.66c0.31-0.28,0.55-0.63,0.72-1.05c0.17-0.42,0.26-0.88,0.26-1.39   c0-0.48-0.1-0.92-0.31-1.31S15.87,45.02,15.54,44.74z M14.92,48.07c-0.1,0.28-0.23,0.49-0.4,0.65s-0.34,0.27-0.54,0.33   c-0.2,0.07-0.39,0.1-0.59,0.1h-1.5v-3.99h1.23c0.42,0,0.76,0.07,1.01,0.2c0.25,0.13,0.45,0.3,0.59,0.49   c0.14,0.2,0.23,0.4,0.28,0.62c0.05,0.21,0.07,0.4,0.07,0.57C15.07,47.45,15.02,47.79,14.92,48.07z"/><polygon points="24.15,50.87 20.2,43.92 18.53,43.92 18.53,54 20.2,54 20.2,47.05 24.15,54 25.82,54 25.82,43.92 24.15,43.92  "/><path d="M32.32,49.93h1.71v2.49c-0.07,0.1-0.19,0.18-0.34,0.23c-0.16,0.05-0.32,0.1-0.49,0.13c-0.17,0.03-0.34,0.05-0.51,0.07   c-0.17,0.01-0.3,0.02-0.4,0.02c-0.33,0-0.64-0.08-0.94-0.23c-0.3-0.16-0.56-0.39-0.79-0.71s-0.42-0.73-0.55-1.23   c-0.13-0.5-0.2-1.09-0.21-1.78c0.01-0.7,0.08-1.29,0.22-1.78s0.33-0.88,0.57-1.18c0.24-0.31,0.51-0.52,0.82-0.65   c0.31-0.13,0.63-0.19,0.96-0.19c0.3,0,0.59,0.06,0.88,0.18c0.28,0.12,0.53,0.31,0.75,0.57l1.13-1.01c-0.37-0.36-0.8-0.64-1.27-0.82   c-0.47-0.18-0.98-0.27-1.53-0.27c-0.59,0-1.14,0.11-1.65,0.33c-0.51,0.22-0.96,0.55-1.33,0.98c-0.38,0.43-0.67,0.96-0.89,1.61   c-0.21,0.64-0.32,1.39-0.32,2.24s0.11,1.59,0.32,2.24c0.21,0.65,0.51,1.18,0.89,1.61c0.38,0.43,0.82,0.75,1.33,0.97   s1.06,0.33,1.66,0.33c0.3,0,0.6-0.02,0.91-0.07c0.31-0.05,0.6-0.12,0.89-0.23s0.56-0.25,0.82-0.42s0.49-0.38,0.7-0.65v-3.9h-3.34   V49.93z"/><circle cx="4" cy="4" r="1"/><circle cx="8" cy="4" r="1"/><circle cx="12" cy="4" r="1"/><circle cx="16" cy="4" r="1"/><circle cx="20" cy="4" r="1"/><circle cx="24" cy="4" r="1"/><circle cx="28" cy="4" r="1"/><circle cx="30" cy="6" r="1"/><circle cx="26" cy="6" r="1"/><circle cx="22" cy="6" r="1"/><circle cx="18" cy="6" r="1"/><circle cx="14" cy="6" r="1"/><circle cx="10" cy="6" r="1"/><circle cx="6" cy="6" r="1"/><circle cx="4" cy="8" r="1"/><circle cx="8" cy="8" r="1"/><circle cx="12" cy="8" r="1"/><circle cx="16" cy="8" r="1"/><circle cx="20" cy="8" r="1"/><circle cx="24" cy="8" r="1"/><circle cx="28" cy="8" r="1"/><circle cx="30" cy="10" r="1"/><circle cx="26" cy="10" r="1"/><circle cx="22" cy="10" r="1"/><circle cx="18" cy="10" r="1"/><circle cx="14" cy="10" r="1"/><circle cx="10" cy="10" r="1"/><circle cx="6" cy="10" r="1"/><circle cx="4" cy="12" r="1"/><circle cx="16" cy="12" r="1"/><circle cx="20" cy="12" r="1"/><circle cx="24" cy="12" r="1"/><circle cx="28" cy="12" r="1"/><circle cx="30" cy="14" r="1"/><circle cx="26" cy="14" r="1"/><circle cx="22" cy="14" r="1"/><circle cx="18" cy="14" r="1"/><circle cx="20" cy="16" r="1"/><circle cx="24" cy="16" r="1"/><circle cx="28" cy="16" r="1"/><circle cx="32" cy="16" r="1"/><circle cx="36" cy="16" r="1"/><circle cx="38" cy="18" r="1"/><circle cx="42" cy="22" r="1"/><circle cx="40" cy="20" r="1"/><circle cx="42" cy="18" r="1"/><circle cx="40" cy="16" r="1"/><circle cx="30" cy="18" r="1"/><circle cx="26" cy="18" r="1"/><circle cx="22" cy="18" r="1"/><circle cx="18" cy="18" r="1"/><path d="M4,21c0.43,0,0.78-0.27,0.93-0.64c0.14,0.3,0.3,0.59,0.48,0.86C5.17,21.4,5,21.67,5,22c0,0.55,0.45,1,1,1   c0.32,0,0.59-0.16,0.78-0.4c0.26,0.18,0.53,0.35,0.82,0.48C7.25,23.24,7,23.59,7,24c0,0.55,0.45,1,1,1s1-0.45,1-1   c0-0.18-0.06-0.34-0.14-0.48c0.37,0.08,0.75,0.12,1.14,0.12s0.77-0.04,1.14-0.12C11.06,23.66,11,23.82,11,24c0,0.55,0.45,1,1,1   s1-0.45,1-1c0-0.41-0.25-0.76-0.6-0.91c0.29-0.14,0.56-0.3,0.82-0.48C13.41,22.84,13.68,23,14,23c0.55,0,1-0.45,1-1   c0-0.33-0.17-0.6-0.41-0.79c0.19-0.27,0.34-0.56,0.48-0.86C15.22,20.73,15.57,21,16,21c0.55,0,1-0.45,1-1c0-0.55-0.45-1-1-1   c-0.21,0-0.38,0.08-0.54,0.18c0.07-0.36,0.11-0.73,0.11-1.11c0-0.44-0.06-0.87-0.15-1.28C15.58,16.91,15.78,17,16,17   c0.55,0,1-0.45,1-1c0-0.55-0.45-1-1-1c-0.46,0-0.83,0.32-0.95,0.74c-0.15-0.32-0.33-0.62-0.53-0.91C14.8,14.65,15,14.36,15,14   c0-0.55-0.45-1-1-1c-0.36,0-0.66,0.2-0.84,0.49c-0.3-0.21-0.62-0.38-0.95-0.53C12.66,12.86,13,12.48,13,12c0-0.55-0.45-1-1-1   s-1,0.45-1,1c0,0.25,0.1,0.47,0.25,0.65c-0.4-0.09-0.82-0.15-1.25-0.15s-0.85,0.05-1.25,0.15C8.9,12.47,9,12.25,9,12   c0-0.55-0.45-1-1-1s-1,0.45-1,1c0,0.48,0.34,0.86,0.79,0.96c-0.34,0.15-0.66,0.32-0.95,0.53C6.66,13.2,6.36,13,6,13   c-0.55,0-1,0.45-1,1c0,0.36,0.2,0.65,0.48,0.83c-0.2,0.28-0.38,0.59-0.53,0.91C4.83,15.32,4.46,15,4,15c-0.55,0-1,0.45-1,1   c0,0.55,0.45,1,1,1c0.22,0,0.42-0.09,0.59-0.21c-0.1,0.41-0.15,0.84-0.15,1.28c0,0.38,0.04,0.75,0.11,1.11C4.38,19.08,4.21,19,4,19   c-0.55,0-1,0.45-1,1C3,20.55,3.45,21,4,21z M10,14.5c1.97,0,3.57,1.6,3.57,3.57s-1.6,3.57-3.57,3.57s-3.57-1.6-3.57-3.57   S8.03,14.5,10,14.5z"/><circle cx="20" cy="20" r="1"/><circle cx="24" cy="20" r="1"/><circle cx="28" cy="20" r="1"/><circle cx="26" cy="22" r="1"/><circle cx="22" cy="22" r="1"/><circle cx="18" cy="22" r="1"/><circle cx="4" cy="24" r="1"/><circle cx="16" cy="24" r="1"/><circle cx="20" cy="24" r="1"/><circle cx="24" cy="24" r="1"/><circle cx="22" cy="26" r="1"/><circle cx="14" cy="26" r="1"/><circle cx="10" cy="26" r="1"/><circle cx="6" cy="26" r="1"/><circle cx="4" cy="28" r="1"/><circle cx="8" cy="28" r="1"/><circle cx="12" cy="28" r="1"/><circle cx="6" cy="30" r="1"/><circle cx="4" cy="32" r="1"/></g></svg>
