<svg xmlns="http://www.w3.org/2000/svg" xmlns:xlink="http://www.w3.org/1999/xlink" version="1.1" x="0px" y="0px" viewBox="0 0 100 125" enable-background="new 0 0 100 100" xml:space="preserve" stroke="none" stroke-width="1" fill="white"><path d="M45.926,34.466c4.346,0,7.865-3.521,7.865-7.864s-3.52-7.865-7.865-7.865c-4.344,0-7.867,3.521-7.867,7.865  S41.582,34.466,45.926,34.466z M87.137,28.729H55.678c-0.164,0.748-0.428,1.451-0.748,2.127h32.207c2.35,0,4.254-1.904,4.254-4.254  c0-2.352-1.904-4.255-4.254-4.255H54.93c0.32,0.675,0.584,1.38,0.748,2.127h31.459c1.174,0,2.127,0.954,2.127,2.128  S88.311,28.729,87.137,28.729z M12.864,30.855h24.054c-0.615-1.297-0.986-2.729-0.986-4.254c0-1.527,0.371-2.959,0.986-4.255H12.864  c-2.351,0-4.254,1.905-4.254,4.255S10.514,30.855,12.864,30.855z M12.864,54.254h45.403c-0.613-1.298-0.985-2.729-0.985-4.256  c0-1.525,0.372-2.958,0.985-4.254H12.864c-2.351,0-4.254,1.902-4.254,4.254S10.514,54.254,12.864,54.254z M87.137,45.746H76.281  c0.318,0.677,0.584,1.379,0.748,2.127h10.107c1.174,0,2.127,0.951,2.127,2.127s-0.953,2.129-2.127,2.129H77.029  c-0.164,0.746-0.43,1.45-0.748,2.127h10.855c2.35,0,4.254-1.904,4.254-4.256C91.391,47.649,89.486,45.746,87.137,45.746z M59.408,50  c0,4.348,3.521,7.862,7.867,7.862s7.863-3.519,7.863-7.862c0-4.347-3.518-7.863-7.863-7.863C62.93,42.135,59.408,45.654,59.408,50z   M87.137,69.145H42.795c0.32,0.675,0.584,1.38,0.748,2.127h43.594c1.174,0,2.127,0.954,2.127,2.128c0,1.173-0.953,2.127-2.127,2.127  H43.543c-0.162,0.748-0.428,1.452-0.748,2.127h44.342c2.35,0,4.254-1.903,4.254-4.254C91.391,71.05,89.486,69.145,87.137,69.145z   M33.791,65.534c-4.347,0-7.867,3.521-7.867,7.865c0,4.348,3.521,7.864,7.867,7.864c4.346,0,7.864-3.521,7.864-7.864  C41.655,69.053,38.135,65.534,33.791,65.534z M12.864,69.145c-2.351,0-4.254,1.905-4.254,4.255c0,2.351,1.905,4.254,4.254,4.254  h11.919c-0.615-1.296-0.988-2.728-0.988-4.254c0-1.525,0.373-2.959,0.988-4.255H12.864z"/></svg>
