<svg xmlns="http://www.w3.org/2000/svg" xmlns:xlink="http://www.w3.org/1999/xlink" xmlns:sketch="http://www.bohemiancoding.com/sketch/ns" viewBox="0 0 53 67.5" version="1.1" x="0px" y="0px"><g stroke="none" stroke-width="1" fill="none" fill-rule="evenodd" sketch:type="MSPage"><g sketch:type="MSLayerGroup" fill="#000000"><path d="M22.439,33.869 C21.583,33.604 20.769,33.114 20.058,32.486 C20.631,33.728 21.756,34.828 23.031,35.224 C23.347,35.321 23.653,35.371 23.943,35.371 C25.002,35.371 25.686,34.719 25.794,33.656 C25.245,33.943 24.617,34.105 23.939,34.105 C23.45,34.105 22.946,34.026 22.439,33.869" sketch:type="MSShapeGroup"/><path d="M23.031,31.959 C23.346,32.056 23.651,32.105 23.939,32.105 C24.522,32.105 25.002,31.905 25.331,31.535 C25.312,31.497 25.297,31.458 25.276,31.42 C25.243,31.358 25.207,31.296 25.171,31.234 C24.94,30.847 24.66,30.481 24.336,30.158 C24.318,30.14 24.3,30.122 24.281,30.104 C23.945,29.778 23.568,29.499 23.167,29.284 C23.126,29.262 23.086,29.242 23.045,29.221 C22.847,29.123 22.646,29.036 22.439,28.972 C22.223,28.904 22.014,28.868 21.811,28.848 C21.77,28.843 21.729,28.84 21.689,28.838 C21.275,28.814 20.897,28.885 20.586,29.049 C20.575,29.055 20.563,29.061 20.553,29.067 C20.394,29.155 20.252,29.266 20.133,29.401 C20.742,30.61 21.839,31.589 23.031,31.959" sketch:type="MSShapeGroup"/><path d="M50.753,34.667 C50.995,34.699 51.268,34.786 51.585,34.931 C51.893,35.072 52.254,35.048 52.541,34.862 C52.827,34.679 53,34.361 53,34.021 L53,31.787 C53,29.634 51.989,27.564 50.294,26.239 L32.92,9.803 C32.553,9.457 31.986,9.436 31.598,9.758 C31.288,10.011 30.811,10.063 30.291,9.904 C29.049,9.519 28,8.16 28,6.936 C28,6.683 28.049,6.459 28.145,6.268 C28.344,5.874 28.26,5.395 27.939,5.092 L24.959,2.273 C24.933,2.249 24.906,2.226 24.878,2.205 C22.564,0.442 19.739,-0.145 17.565,0.811 L2.775,7.945 C1.09,8.674 0,10.384 0,12.304 L0,28.058 C0,28.355 0.132,28.637 0.36,28.827 C0.588,29.016 0.887,29.094 1.181,29.042 C1.503,28.981 1.866,29.006 2.231,29.119 C3.732,29.584 5,31.228 5,32.711 C5,33.937 4.083,34.544 2.822,34.154 C2.425,34.031 2.022,33.807 1.627,33.489 C1.326,33.249 0.915,33.199 0.567,33.367 C0.221,33.533 0,33.884 0,34.268 L0,36.432 C0,38.583 1.457,40.449 3.504,40.959 L47.188,53.827 C47.563,53.921 47.946,53.969 48.329,53.969 C49.558,53.969 50.721,53.491 51.604,52.623 C52.504,51.738 53,50.554 53,49.289 L53,40.949 C53,40.459 52.645,40.041 52.16,39.962 C50.706,39.726 49.265,38.226 49.012,36.688 C48.905,36.038 49.02,35.477 49.334,35.107 C49.646,34.74 50.146,34.587 50.753,34.667 L50.753,34.667 Z M27.256,23.904 C27.101,23.856 26.948,23.793 26.801,23.716 C25.916,23.259 25.2,22.332 25.012,21.403 C24.982,21.25 24.966,21.097 24.966,20.946 C24.969,20.927 24.978,20.854 24.982,20.816 C25.027,20.138 25.42,19.727 26.073,19.727 C26.259,19.727 26.458,19.76 26.664,19.823 C27.826,20.183 28.806,21.393 28.93,22.55 C28.931,22.559 28.929,22.567 28.93,22.576 L28.955,22.791 C28.955,22.953 28.925,23.095 28.888,23.23 C28.874,23.277 28.86,23.326 28.842,23.37 C28.804,23.462 28.752,23.542 28.695,23.615 C28.641,23.681 28.579,23.737 28.511,23.787 C28.483,23.807 28.454,23.826 28.423,23.844 C28.36,23.879 28.297,23.913 28.226,23.936 C28.124,23.967 28.016,23.987 27.898,23.991 C27.857,23.993 27.812,23.989 27.769,23.987 C27.604,23.98 27.435,23.959 27.256,23.904 L27.256,23.904 Z M3.606,9.764 L18.4,2.627 C18.815,2.446 19.295,2.353 19.826,2.353 C21.069,2.353 22.416,2.854 23.624,3.764 L26.094,6.099 C26.031,6.367 26,6.646 26,6.936 C26,9.029 27.625,11.172 29.7,11.814 C30.536,12.073 31.376,12.052 32.085,11.768 L48,26.823 L30.796,21.699 C30.357,19.996 28.967,18.442 27.256,17.913 C26.857,17.79 26.46,17.727 26.073,17.727 C24.799,17.727 23.782,18.411 23.29,19.464 L3.126,13.463 C2.507,13.344 2.147,12.918 2.058,12.195 C2.05,12.133 2.035,12.072 2.014,12.012 C2.11,11.014 2.702,10.155 3.606,9.764 L3.606,9.764 Z M7.664,24.492 C6.125,24.016 4.919,22.423 4.919,20.865 C4.919,19.414 5.944,18.36 7.356,18.36 C7.651,18.36 7.954,18.407 8.256,18.501 C9.795,18.978 11,20.572 11,22.129 C11,23.58 9.976,24.633 8.564,24.633 C8.27,24.633 7.967,24.586 7.664,24.492 L7.664,24.492 Z M13.702,40 C13.329,40 12.945,39.939 12.561,39.82 C10.564,39.202 9,37.14 9,35.125 C9,33.324 10.267,32.018 12.011,32.018 C12.384,32.018 12.768,32.078 13.152,32.197 C15.148,32.814 16.713,34.878 16.713,36.893 C16.713,38.693 15.447,40 13.702,40 L13.702,40 Z M23.943,37.371 C23.453,37.371 22.947,37.291 22.439,37.134 C19.756,36.303 17.654,33.535 17.654,30.834 C17.654,30.138 17.815,29.51 18.08,28.957 C18.092,28.925 18.091,28.889 18.106,28.857 C18.14,28.791 18.186,28.737 18.223,28.674 C18.271,28.591 18.321,28.512 18.375,28.434 C18.453,28.321 18.538,28.214 18.628,28.112 C18.706,28.022 18.786,27.936 18.871,27.855 C18.937,27.794 19.007,27.738 19.077,27.682 C19.206,27.577 19.338,27.478 19.481,27.391 C19.5,27.38 19.52,27.37 19.539,27.36 C20.112,27.025 20.781,26.824 21.527,26.824 C22.018,26.824 22.523,26.904 23.031,27.061 C23.32,27.151 23.601,27.272 23.879,27.407 C23.987,27.459 24.09,27.517 24.195,27.575 C24.353,27.663 24.506,27.758 24.657,27.859 C24.782,27.943 24.907,28.023 25.026,28.114 C25.133,28.196 25.232,28.287 25.334,28.375 C25.58,28.586 25.81,28.809 26.027,29.051 C26.103,29.135 26.179,29.218 26.251,29.306 C26.369,29.45 26.48,29.597 26.587,29.75 C26.662,29.856 26.73,29.965 26.799,30.075 C26.891,30.222 26.985,30.367 27.065,30.52 C27.193,30.761 27.308,31.008 27.405,31.262 C27.406,31.263 27.405,31.264 27.406,31.265 C27.666,31.945 27.816,32.654 27.816,33.36 C27.816,35.684 26.188,37.371 23.943,37.371 L23.943,37.371 Z M32.594,29.111 C32.872,29.111 33.156,29.156 33.439,29.244 C34.875,29.688 36,31.176 36,32.631 C36,34.003 35.03,35 33.693,35 C33.416,35 33.131,34.955 32.848,34.867 C31.412,34.423 30.287,32.935 30.287,31.481 C30.287,30.108 31.257,29.111 32.594,29.111 L32.594,29.111 Z M34.406,46.889 C34.128,46.889 33.844,46.844 33.561,46.756 C32.125,46.311 31,44.824 31,43.369 C31,41.997 31.97,41 33.307,41 C33.584,41 33.869,41.045 34.152,41.133 C35.588,41.577 36.713,43.064 36.713,44.518 C36.713,45.891 35.743,46.889 34.406,46.889 L34.406,46.889 Z M41.702,42 C41.329,42 40.945,41.939 40.561,41.82 C38.564,41.202 37,39.14 37,37.125 C37,35.324 38.267,34.017 40.011,34.017 C40.384,34.017 40.768,34.078 41.152,34.197 C43.148,34.814 44.713,36.878 44.713,38.893 C44.713,40.693 43.447,42 41.702,42 L41.702,42 Z" sketch:type="MSShapeGroup"/></g></g></svg>
