<svg xmlns="http://www.w3.org/2000/svg" xmlns:xlink="http://www.w3.org/1999/xlink" xmlns:sketch="http://www.bohemiancoding.com/sketch/ns" viewBox="0 0 59 68.75" version="1.1" x="0px" y="0px">
<g stroke="none" stroke-width="1" fill="none" fill-rule="evenodd" sketch:type="MSPage"><g sketch:type="MSLayerGroup" transform="translate(-1.000000, 0.000000)" fill="#000000"><path d="M58.507,17.145 C58.498,17.121 58.479,17.105 58.469,17.082 C58.252,16.244 57.999,15.428 57.687,14.65 L54.875,16.956 C55.28,17.689 55.656,18.435 56.002,19.191 L57.302,22.918 C57.205,23.614 57.023,24.268 56.734,24.867 C55.592,27.239 53.28,28.066 53.205,28.094 L35.386,35.318 C35.36,34.644 35.268,33.919 35.089,33.131 C35.069,33.039 35.056,32.947 35.05,32.856 L55.325,24.428 C55.441,24.379 55.543,24.31 55.655,24.255 L54.148,19.936 C53.752,19.07 53.319,18.203 52.832,17.349 C52.83,17.347 52.827,17.346 52.825,17.344 C52.807,17.322 52.803,17.296 52.787,17.273 C51.919,15.763 50.868,14.296 49.491,12.958 C49.455,12.94 49.417,12.93 49.383,12.907 C49.256,12.822 49.161,12.709 49.087,12.586 C47.677,11.3 45.946,10.145 43.758,9.2 C43.665,9.19 43.571,9.182 43.48,9.143 C43.396,9.108 43.332,9.05 43.263,8.996 C41.481,8.274 39.417,7.682 36.99,7.27 C36.953,7.274 36.919,7.286 36.882,7.286 C36.762,7.286 36.641,7.265 36.522,7.219 C36.507,7.214 36.497,7.201 36.482,7.194 C32.847,6.623 28.44,6.432 23.052,6.748 C23.034,6.749 23.018,6.759 23,6.759 C22.989,6.759 22.98,6.753 22.969,6.752 C18.69,7.007 13.804,7.575 8.19,8.527 L6.932,8.674 L5.524,26.659 C3.704,27.82 -0.138,30.966 1.321,36.122 C1.835,37.94 2.677,39.009 3.822,39.296 C4.032,39.349 4.372,39.522 4.322,39.841 C3.935,42.289 3.28,46.805 3.231,49.553 C3.207,50.813 3.581,51.844 4.341,52.619 C5.536,53.836 7.335,54.017 8.302,54.017 C8.643,54.017 8.867,53.995 8.868,53.994 C9.243,53.969 12.342,53.694 13.368,51.548 C13.995,50.236 13.665,48.636 12.396,46.797 L28.792,40.149 C28.795,40.151 28.799,40.152 28.802,40.153 C28.997,40.257 29.206,40.337 29.422,40.403 C29.457,40.414 29.488,40.431 29.523,40.441 C29.773,40.51 30.035,40.556 30.31,40.575 C30.442,40.584 30.581,40.589 30.723,40.589 C30.763,40.589 30.798,40.579 30.837,40.578 C31.142,40.571 31.448,40.549 31.753,40.492 C31.872,40.47 31.98,40.432 32.094,40.403 C32.266,40.359 32.435,40.31 32.601,40.247 C32.742,40.194 32.878,40.136 33.01,40.071 C33.141,40.006 33.264,39.929 33.388,39.852 C33.513,39.773 33.642,39.702 33.756,39.611 C33.958,39.451 34.146,39.269 34.32,39.064 C34.341,39.039 34.369,39.021 34.389,38.996 C34.708,38.596 34.943,38.129 35.111,37.608 C35.114,37.599 35.119,37.592 35.122,37.583 L53.9,29.968 C54.026,29.926 56.997,28.893 58.52,25.769 C59.684,23.382 59.68,20.48 58.507,17.145 L58.507,17.145 Z M11.26,43.57 C11.46,42.908 12.188,42.329 13.444,41.841 L26.698,36.33 C26.75,37.036 26.908,37.857 27.293,38.599 L11.416,45.036 C11.201,44.462 11.139,43.968 11.26,43.57 L11.26,43.57 Z M25.8,30.12 C25.787,29.547 25.987,29.001 26.363,28.581 C26.756,28.145 27.29,27.896 27.867,27.884 C27.915,27.883 27.982,27.807 27.979,27.69 C27.953,26.483 28.88,25.481 30.046,25.455 C30.094,25.454 30.161,25.378 30.158,25.262 C30.146,24.71 30.585,24.252 31.137,24.24 C31.716,24.269 32.147,24.667 32.158,25.219 C32.184,26.426 31.256,27.428 30.09,27.455 C30.043,27.456 29.976,27.531 29.979,27.647 C30.005,28.854 29.077,29.857 27.911,29.884 C27.837,29.885 27.798,30.001 27.799,30.075 C27.812,30.628 27.374,31.085 26.822,31.098 L26.799,31.098 C26.257,31.098 25.812,30.664 25.8,30.12 L25.8,30.12 Z M42.667,14.034 C43.466,14.034 44.552,14.034 45.489,14.485 C46.331,14.889 47.333,15.802 47.333,17.848 C47.333,21.214 43.894,23.951 39.667,23.951 C36.089,23.951 33,23.951 33,19.849 C33,16.058 41.093,14.034 42.667,14.034 L42.667,14.034 Z M26.775,8.126 C27.465,7.981 28.174,8.105 28.765,8.472 C29.373,8.848 29.786,9.436 29.929,10.126 C29.995,10.448 30.348,10.651 30.718,10.572 C31.409,10.428 32.116,10.551 32.707,10.919 C33.315,11.295 33.728,11.883 33.871,12.572 C33.911,12.77 34.05,12.882 34.129,12.931 C34.283,13.025 34.469,13.058 34.659,13.017 C35.201,12.909 35.729,13.254 35.841,13.794 C35.953,14.335 35.605,14.864 35.065,14.976 C34.876,15.016 34.686,15.034 34.498,15.034 C33.996,15.034 33.504,14.896 33.075,14.63 C32.467,14.253 32.054,13.666 31.912,12.976 C31.871,12.779 31.732,12.667 31.653,12.618 C31.499,12.522 31.312,12.489 31.123,12.531 C29.671,12.824 28.258,11.93 27.97,10.53 C27.929,10.333 27.79,10.221 27.711,10.172 C27.558,10.076 27.368,10.042 27.181,10.085 C26.635,10.195 26.11,9.848 25.999,9.308 C25.887,8.768 26.234,8.238 26.775,8.126 L26.775,8.126 Z M27.43,19.181 C27.614,19.26 27.786,19.214 27.872,19.178 C28.038,19.107 28.172,18.972 28.25,18.796 C28.473,18.289 29.062,18.059 29.568,18.283 C30.074,18.505 30.303,19.096 30.081,19.6 C29.796,20.248 29.287,20.753 28.646,21.021 C27.986,21.299 27.268,21.294 26.624,21.011 C26.44,20.93 26.268,20.977 26.182,21.014 C26.015,21.084 25.881,21.22 25.803,21.395 C25.207,22.75 23.656,23.384 22.346,22.805 C22.161,22.725 21.99,22.771 21.903,22.808 C21.737,22.878 21.602,23.014 21.525,23.189 C21.36,23.564 20.993,23.787 20.609,23.787 C20.475,23.787 20.338,23.76 20.207,23.702 C19.701,23.48 19.472,22.89 19.694,22.385 C19.978,21.737 20.489,21.232 21.13,20.964 C21.789,20.686 22.508,20.691 23.151,20.974 C23.451,21.106 23.82,20.934 23.973,20.59 C24.257,19.943 24.767,19.438 25.408,19.17 C26.067,18.893 26.784,18.897 27.43,19.181 L27.43,19.181 Z M20.362,9.076 C21.77,9.076 25.029,9.076 25.029,12.89 C25.029,16.255 21.59,18.993 17.362,18.993 C13.785,18.993 10.695,18.993 10.695,14.889 C10.695,11.1 18.789,9.076 20.362,9.076 L20.362,9.076 Z M8.377,31.115 C8.377,27.325 16.47,25.302 18.043,25.302 C19.45,25.302 22.71,25.302 22.71,29.115 C22.71,32.48 19.271,35.219 15.043,35.219 C11.466,35.219 8.377,35.219 8.377,31.115 L8.377,31.115 Z" sketch:type="MSShapeGroup"/><path d="M37.501,21.125 C38.053,21.125 38.501,20.677 38.501,20.125 C38.501,19.573 38.053,19.125 37.501,19.125 C36.948,19.125 36.501,19.573 36.501,20.125 C36.501,20.677 36.948,21.125 37.501,21.125" sketch:type="MSShapeGroup"/><path d="M42.719,18.477 C43.272,18.477 43.719,18.029 43.719,17.477 C43.719,16.925 43.272,16.477 42.719,16.477 C42.167,16.477 41.719,16.925 41.719,17.477 C41.719,18.029 42.167,18.477 42.719,18.477" sketch:type="MSShapeGroup"/><path d="M41.407,20.993 C41.959,20.993 42.407,20.545 42.407,19.992 C42.407,19.44 41.959,18.993 41.407,18.993 C40.855,18.993 40.407,19.44 40.407,19.992 C40.407,20.545 40.855,20.993 41.407,20.993" sketch:type="MSShapeGroup"/><path d="M15.253,16.358 C15.805,16.358 16.253,15.911 16.253,15.358 C16.253,14.806 15.805,14.358 15.253,14.358 C14.7,14.358 14.253,14.806 14.253,15.358 C14.253,15.911 14.7,16.358 15.253,16.358" sketch:type="MSShapeGroup"/><path d="M21.085,15.034 C21.637,15.034 22.085,14.587 22.085,14.034 C22.085,13.482 21.637,13.034 21.085,13.034 C20.532,13.034 20.085,13.482 20.085,14.034 C20.085,14.587 20.532,15.034 21.085,15.034" sketch:type="MSShapeGroup"/><path d="M17.862,14.034 C18.414,14.034 18.862,13.587 18.862,13.034 C18.862,12.482 18.414,12.034 17.862,12.034 C17.31,12.034 16.862,12.482 16.862,13.034 C16.862,13.587 17.31,14.034 17.862,14.034" sketch:type="MSShapeGroup"/><path d="M13.003,30.422 C12.45,30.422 12.003,30.87 12.003,31.422 C12.003,31.974 12.45,32.422 13.003,32.422 C13.555,32.422 14.003,31.974 14.003,31.422 C14.003,30.87 13.555,30.422 13.003,30.422" sketch:type="MSShapeGroup"/><path d="M16.253,30.098 C16.805,30.098 17.253,29.65 17.253,29.098 C17.253,28.546 16.805,28.098 16.253,28.098 C15.701,28.098 15.253,28.546 15.253,29.098 C15.253,29.65 15.701,30.098 16.253,30.098" sketch:type="MSShapeGroup"/><path d="M16.862,31.098 C16.862,31.65 17.31,32.098 17.862,32.098 C18.414,32.098 18.862,31.65 18.862,31.098 C18.862,30.546 18.414,30.098 17.862,30.098 C17.31,30.098 16.862,30.546 16.862,31.098" sketch:type="MSShapeGroup"/><path d="M14,5.627 L14,1.953 C13.215,2.061 12.464,2.169 11.795,2.274 C9.46,2.642 7.656,4.387 7.157,6.635 L7.907,6.548 C10.034,6.187 12.062,5.882 14,5.627" sketch:type="MSShapeGroup"/><path d="M51.997,7.193 C50.46,6.001 48.69,4.972 46.675,4.118 L45.15,7.749 C46.914,8.575 48.425,9.534 49.719,10.602 L51.997,7.193" sketch:type="MSShapeGroup"/><path d="M22,1.146 C19.849,1.283 17.826,1.479 16,1.697 L16,5.384 C18.109,5.138 20.112,4.95 22,4.827 L22,1.146" sketch:type="MSShapeGroup"/><path d="M37.595,1.653 C35.533,1.336 33.341,1.118 31,1.019 L31,4.708 C32.882,4.798 34.617,4.968 36.226,5.207 L37.595,1.653" sketch:type="MSShapeGroup"/><path d="M44.812,3.388 C43.207,2.828 41.467,2.368 39.604,2.001 L38.236,5.553 C40.111,5.926 41.797,6.401 43.309,6.969 L44.812,3.388" sketch:type="MSShapeGroup"/><path d="M29,4.642 L29,0.977 C28.584,0.971 28.183,0.951 27.759,0.951 C26.484,0.951 25.231,0.987 24,1.04 L24,4.72 C25.761,4.642 27.43,4.615 29,4.642" sketch:type="MSShapeGroup"/><path d="M53.83,15.226 L56.81,12.782 C55.95,11.202 54.85,9.778 53.524,8.508 L51.21,11.971 C52.217,12.992 53.078,14.084 53.83,15.226" sketch:type="MSShapeGroup"/></g></g></svg>
